<?xml version="1.0" standalone="no"?>
<!DOCTYPE svg PUBLIC "-//W3C//DTD SVG 20010904//EN"
 "http://www.w3.org/TR/2001/REC-SVG-20010904/DTD/svg10.dtd">
<svg version="1.0" xmlns="http://www.w3.org/2000/svg"
 width="300.000000pt" height="300.000000pt" viewBox="0 0 300.000000 300.000000"
 preserveAspectRatio="xMidYMid meet">
<metadata>
Created by potrace 1.10, written by Peter Selinger 2001-2011
</metadata>
<g transform="translate(0.000000,300.000000) scale(0.100000,-0.100000)"
fill="#000000" stroke="none">
<path d="M690 1692 c-22 -18 -23 -22 -12 -46 15 -34 16 -251 1 -295 -19 -53 4
-62 136 -58 125 4 156 15 204 74 l31 38 38 -43 c20 -23 54 -49 74 -57 46 -19
148 -19 191 -2 33 14 107 89 107 108 0 5 4 8 9 4 6 -3 8 -13 6 -23 -17 -81
-18 -80 3 -91 12 -6 43 -11 70 -11 59 0 91 25 73 59 -6 11 -11 30 -11 43 0 19
9 13 59 -41 l59 -63 48 6 c60 7 65 7 133 0 34 -4 62 -2 76 6 17 9 28 9 43 1
11 -6 61 -11 110 -11 104 0 144 19 175 83 36 72 -5 141 -110 188 -46 20 -63
33 -63 48 0 35 28 31 77 -11 l47 -40 23 26 c30 35 29 71 -2 101 -21 22 -33 25
-96 25 -84 0 -133 -20 -160 -64 -44 -72 -12 -149 79 -192 79 -38 94 -52 81
-75 -15 -30 -46 -22 -95 23 -46 42 -46 42 -75 26 l-29 -17 0 105 c0 58 5 114
11 126 9 16 7 24 -12 44 -28 30 -95 33 -129 6 -20 -16 -21 -22 -11 -58 11 -42
11 -268 -1 -279 -3 -3 -14 -1 -25 5 -22 15 -83 95 -83 111 0 6 11 24 25 41 45
53 26 141 -37 174 -22 11 -65 18 -129 20 -83 4 -100 1 -120 -15 -21 -17 -22
-21 -11 -57 16 -52 0 -64 -28 -19 -32 53 -89 87 -153 92 -84 7 -135 -11 -189
-68 l-48 -49 -22 31 c-42 56 -91 76 -208 84 -96 6 -108 5 -130 -13z m225 -27
c43 -18 78 -50 96 -89 33 -72 22 -145 -29 -199 -44 -46 -83 -57 -201 -56 -58
0 -99 3 -91 6 34 12 40 36 40 162 0 145 -5 171 -31 171 -11 0 -19 4 -19 8 0
10 209 7 235 -3z m424 -5 c73 -37 109 -110 97 -195 -14 -91 -121 -166 -211
-149 -48 9 -108 54 -128 97 -19 40 -22 112 -6 154 36 96 156 141 248 93z m375
-3 c26 -17 46 -53 46 -82 0 -22 -50 -75 -71 -75 -10 0 -19 -2 -19 -5 0 -18
116 -156 138 -164 24 -8 21 -9 -23 -10 l-50 0 -58 78 c-39 53 -65 80 -82 83
-25 5 -25 4 -25 -63 0 -59 3 -70 22 -83 21 -15 18 -16 -52 -15 -60 0 -71 2
-53 11 29 14 33 34 33 171 0 119 -8 157 -35 157 -8 0 -15 4 -15 8 0 5 49 8
108 7 86 0 114 -4 136 -18z m276 12 c0 -4 -9 -9 -20 -12 -19 -5 -20 -14 -20
-155 0 -145 1 -152 22 -166 21 -15 18 -16 -52 -15 -60 0 -71 2 -53 11 29 14
33 34 33 165 0 118 -10 163 -35 163 -8 0 -15 3 -15 8 0 4 32 7 70 7 39 0 70
-3 70 -6z m280 -44 l0 -50 -17 34 c-38 78 -163 74 -163 -4 0 -33 30 -58 94
-78 159 -50 131 -217 -34 -208 -30 1 -68 3 -85 4 -29 1 -30 2 -32 54 -1 29 2
53 8 53 5 0 9 -7 9 -16 0 -9 15 -31 34 -50 27 -27 42 -34 73 -34 48 0 83 29
83 69 0 36 -10 44 -96 79 -57 22 -72 34 -89 65 -20 37 -20 37 0 74 28 52 56
64 142 61 l73 -3 0 -50z"/>
<path d="M786 1644 c-3 -9 -6 -78 -6 -154 0 -156 5 -167 66 -157 75 12 112 56
121 141 8 73 -17 140 -61 167 -39 24 -111 26 -120 3z m109 -44 c54 -56 43
-185 -19 -225 -49 -33 -56 -18 -56 118 0 68 3 127 7 130 14 15 41 6 68 -23z"/>
<path d="M1204 1652 c-39 -25 -64 -86 -64 -158 0 -101 47 -164 122 -164 112 0
159 202 70 301 -35 39 -86 47 -128 21z m77 -22 c23 -13 49 -61 49 -91 0 -22 0
-22 -28 4 -35 34 -49 34 -84 0 -15 -14 -31 -24 -34 -20 -10 9 14 69 38 94 24
26 31 27 59 13z m26 -131 c12 0 9 -4 -8 -10 -15 -6 -30 -20 -33 -32 l-7 -22
-9 23 c-5 12 -19 26 -31 30 -20 8 -20 8 5 20 17 7 26 20 26 34 0 21 2 20 20
-9 11 -18 28 -33 37 -34z m-87 -54 c30 -31 41 -31 79 1 l31 26 0 -26 c0 -14
-13 -40 -28 -57 -24 -26 -33 -31 -56 -25 -28 7 -66 58 -66 89 0 24 12 21 40
-8z"/>
<path d="M1577 1653 c-4 -3 -7 -39 -7 -80 l0 -73 45 0 c56 0 85 27 85 80 0 48
-33 80 -81 80 -20 0 -39 -3 -42 -7z m78 -54 c9 -29 -4 -59 -26 -59 -15 0 -19
7 -19 38 0 21 3 41 6 45 10 10 33 -4 39 -24z"/>
</g>
</svg>
